<?xml version="1.0" encoding="utf-8"?>
<svg version="1.1" xmlns:xlink="http://www.w3.org/1999/xlink" width="60px" height="61px" xmlns="http://www.w3.org/2000/svg">
  <defs>
    <mask fill="white" id="clip117">
      <path d="M 60 171  C 43.35 171  30 157.65  30 141  L 30 140  C 30 123.35  43.35 110  60 110  L 60 110  C 76.65 110  90 123.35  90 140  L 90 141  C 90 157.65  76.65 171  60 171  " fill-rule="evenodd" />
    </mask>
  </defs>
  <g transform="matrix(1 0 0 1 -30 -110 )">
    <path d="M 30 110  L 90 110  L 90 171  L 30 171  L 30 110  " fill-rule="nonzero" fill="#cccccc" stroke="none" mask="url(#clip117)" />
    <path d="M 34 114  L 86 114  L 86 167  L 34 167  L 34 114  " fill-rule="nonzero" fill="#ffffff" stroke="none" mask="url(#clip117)" />
    <path d="M 65.7 128.15  C 63.18 128.15  61.2 126.17  61.2 123.65  C 61.2 121.13  63.18 119.15  65.7 119.15  C 68.22 119.15  70.2 121.13  70.2 123.65  C 70.2 126.17  68.22 128.15  65.7 128.15  " fill-rule="nonzero" fill="#cccccc" stroke="none" mask="url(#clip117)" />
    <path d="M 36 166  L 36 138.5  L 48.25 126  L 65.4 136  L 75.2 133.5  L 85 136  L 85 166  L 36 166  " fill-rule="nonzero" fill="#169bd5" stroke="none" mask="url(#clip117)" />
  </g>
</svg>