<?xml version="1.0" encoding="utf-8"?>
<svg version="1.1" xmlns:xlink="http://www.w3.org/1999/xlink" width="124px" height="32px" xmlns="http://www.w3.org/2000/svg">
  <defs>
    <mask fill="white" id="clip118">
      <path d="M 0 32  L 0 0  L 29.3340595497469 0  L 99.1234567901224 0  L 124 0  L 124 32  L 0 32  Z " fill-rule="evenodd" />
    </mask>
  </defs>
  <g transform="matrix(1 0 0 1 -106 -124 )">
    <path d="M 0 32  L 0 0  L 29.3340595497469 0  L 99.1234567901224 0  L 124 0  L 124 32  L 0 32  Z " fill-rule="nonzero" fill="#ffffff" stroke="none" transform="matrix(1 0 0 1 106 124 )" />
    <path d="M 0 32  L 0 0  L 29.3340595497469 0  L 99.1234567901224 0  L 124 0  L 124 32  L 0 32  Z " stroke-width="2" stroke="#f2f2f2" fill="none" transform="matrix(1 0 0 1 106 124 )" mask="url(#clip118)" />
  </g>
</svg>