<?xml version="1.0" encoding="utf-8"?>
<svg version="1.1" xmlns:xlink="http://www.w3.org/1999/xlink" width="59px" height="32px" xmlns="http://www.w3.org/2000/svg">
  <defs>
    <mask fill="white" id="clip119">
      <path d="M 0 32  L 0 0  L 13.9573347857667 0  L 47.1635802469131 0  L 59 0  L 59 32  L 0 32  Z " fill-rule="evenodd" />
    </mask>
  </defs>
  <g transform="matrix(1 0 0 1 -37 -124 )">
    <path d="M 0 32  L 0 0  L 13.9573347857667 0  L 47.1635802469131 0  L 59 0  L 59 32  L 0 32  Z " fill-rule="nonzero" fill="#ffffff" stroke="none" transform="matrix(1 0 0 1 37 124 )" />
    <path d="M 0 32  L 0 0  L 13.9573347857667 0  L 47.1635802469131 0  L 59 0  L 59 32  L 0 32  Z " stroke-width="2" stroke="#f2f2f2" fill="none" transform="matrix(1 0 0 1 37 124 )" mask="url(#clip119)" />
  </g>
</svg>