<?xml version="1.0" encoding="utf-8"?>
<svg version="1.1" xmlns:xlink="http://www.w3.org/1999/xlink" width="43px" height="40px" xmlns="http://www.w3.org/2000/svg">
  <g transform="matrix(1 0 0 1 -831 -140 )">
    <path d="M 26.37109375 24.53125  C 28.6365184294872 22.4238782051282  29.7692307692308 19.8878205128205  29.7692307692308 16.9230769230769  C 29.7692307692308 13.9583333333333  28.6365184294872 11.4222756410256  26.37109375 9.31490384615385  C 24.1056690705128 7.20753205128205  21.3794070512821 6.15384615384615  18.1923076923077 6.15384615384615  C 15.0052083333333 6.15384615384615  12.2789463141026 7.20753205128205  10.0135216346154 9.31490384615385  C 7.74809695512821 11.4222756410256  6.61538461538462 13.9583333333333  6.61538461538462 16.9230769230769  C 6.61538461538462 19.8878205128205  7.74809695512821 22.4238782051282  10.0135216346154 24.53125  C 12.2789463141026 26.6386217948718  15.0052083333333 27.6923076923077  18.1923076923077 27.6923076923077  C 21.3794070512821 27.6923076923077  24.1056690705128 26.6386217948718  26.37109375 24.53125  Z M 42.0438701923077 34.7596153846154  C 42.6812900641026 35.3525641025641  43 36.0737179487179  43 36.9230769230769  C 43 37.7564102564103  42.6726762820513 38.4775641025641  42.0180288461538 39.0865384615385  C 41.3633814102564 39.6955128205128  40.588141025641 40  39.6923076923077 40  C 38.7620192307692 40  37.9867788461538 39.6955128205128  37.3665865384615 39.0865384615385  L 28.5030048076923 30.8653846153846  C 25.4192708333333 32.8525641025641  21.9823717948718 33.8461538461538  18.1923076923077 33.8461538461538  C 15.728766025641 33.8461538461538  13.3728966346154 33.4014423076923  11.1246995192308 32.5120192307692  C 8.87650240384615 31.6225961538462  6.93840144230769 30.4206730769231  5.31039663461539 28.90625  C 3.68239182692308 27.3918269230769  2.39032451923077 25.5889423076923  1.43419471153846 23.4975961538462  C 0.478064903846154 21.40625  0 19.2147435897436  0 16.9230769230769  C 0 14.6314102564103  0.478064903846154 12.4399038461538  1.43419471153846 10.3485576923077  C 2.39032451923077 8.25721153846154  3.68239182692308 6.45432692307693  5.31039663461539 4.93990384615385  C 6.93840144230769 3.42548076923077  8.87650240384615 2.22355769230769  11.1246995192308 1.33413461538462  C 13.3728966346154 0.444711538461537  15.728766025641 0  18.1923076923077 0  C 20.6558493589744 0  23.01171875 0.444711538461537  25.2599158653846 1.33413461538462  C 27.5081129807692 2.22355769230769  29.4462139423077 3.42548076923077  31.07421875 4.93990384615385  C 32.7022235576923 6.45432692307693  33.9942908653846 8.25721153846154  34.9504206730769 10.3485576923077  C 35.9065504807692 12.4399038461538  36.3846153846154 14.6314102564103  36.3846153846154 16.9230769230769  C 36.3846153846154 20.4487179487179  35.3165064102564 23.6458333333333  33.1802884615385 26.5144230769231  L 42.0438701923077 34.7596153846154  Z " fill-rule="nonzero" fill="#000000" stroke="none" transform="matrix(1 0 0 1 831 140 )" />
  </g>
</svg>