<?xml version="1.0" encoding="utf-8"?>
<svg version="1.1" xmlns:xlink="http://www.w3.org/1999/xlink" width="250px" height="142px" xmlns="http://www.w3.org/2000/svg">
  <g transform="matrix(1 0 0 1 -106 -378 )">
    <path d="M 106 378  L 356 378  L 356 520  L 106 520  L 106 378  " fill-rule="nonzero" fill="#cccccc" stroke="none" />
    <path d="M 116 388  L 346 388  L 346 510  L 116 510  L 116 388  " fill-rule="nonzero" fill="#ffffff" stroke="none" />
    <path d="M 246.65 420.6  C 240.686 420.6  236 415.914  236 409.95  C 236 403.986  240.686 399.3  246.65 399.3  C 252.614 399.3  257.3 403.986  257.3 409.95  C 257.3 415.914  252.614 420.6  246.65 420.6  " fill-rule="nonzero" fill="#cccccc" stroke="none" />
    <path d="M 120 507  L 120 443.75  L 175.75 415  L 253.8 467.808  L 298.4 432.25  L 343 467.808  L 343 507  L 120 507  " fill-rule="nonzero" fill="#169bd5" stroke="none" />
  </g>
</svg>