<?xml version="1.0" encoding="utf-8"?>
<svg version="1.1" xmlns:xlink="http://www.w3.org/1999/xlink" width="18px" height="22px" xmlns="http://www.w3.org/2000/svg">
  <g transform="matrix(1 0 0 1 -1039 -9 )">
    <path d="M 9 21.0178571428571  C 9.11538461538462 21.0178571428571  9.17307692307693 20.952380952381  9.17307692307692 20.8214285714286  C 9.17307692307693 20.6904761904762  9.11538461538462 20.625  9 20.625  C 8.57451923076923 20.625  8.20853365384616 20.4510788690476  7.90204326923077 20.1032366071429  C 7.59555288461539 19.7553943452381  7.44230769230769 19.3400297619048  7.44230769230769 18.8571428571429  C 7.44230769230769 18.7261904761905  7.38461538461539 18.6607142857143  7.26923076923077 18.6607142857143  C 7.15384615384615 18.6607142857143  7.09615384615385 18.7261904761905  7.09615384615385 18.8571428571429  C 7.09615384615385 19.4546130952381  7.28185096153846 19.964099702381  7.65324519230769 20.3856026785714  C 8.02463942307692 20.8071056547619  8.47355769230769 21.0178571428571  9 21.0178571428571  Z M 4.84615384615385 7.07142857142857  C 4.84615384615385 11.4255952380952  3.88701923076923 14.8303571428571  1.96875 17  L 16.03125 17  C 14.1129807692308 14.8303571428571  13.1538461538462 11.4255952380952  13.1538461538462 7.07142857142857  C 13.1538461538462 6.65401785714286  13.0673076923077 6.22433035714286  12.8942307692308 5.78236607142857  C 12.7211538461538 5.34040178571429  12.4723557692308 4.91889880952381  12.1478365384615 4.51785714285714  C 11.8233173076923 4.11681547619048  11.3852163461538 3.78738839285714  10.8335336538462 3.52957589285714  C 10.2818509615385 3.27176339285714  9.67067307692308 3.14285714285714  9 3.14285714285714  C 8.32932692307692 3.14285714285714  7.71814903846154 3.27176339285714  7.16646634615385 3.52957589285714  C 6.61478365384615 3.78738839285714  6.17668269230769 4.11681547619048  5.85216346153846 4.51785714285714  C 5.52764423076923 4.91889880952381  5.27884615384615 5.34040178571429  5.10576923076923 5.78236607142857  C 4.93269230769231 6.22433035714286  4.84615384615385 6.65401785714286  4.84615384615385 7.07142857142857  Z M 17.015625 16.2053571428571  C 17.3112980769231 16.5818452380952  17.6394230769231 16.9419642857143  18 17.2857142857143  C 18 17.7113095238095  17.8629807692308 18.0796130952381  17.5889423076923 18.390625  C 17.3149038461538 18.7016369047619  16.9903846153846 18.8571428571429  16.6153846153846 18.8571428571429  L 11.7692307692308 18.8571428571429  C 11.7692307692308 19.7247023809524  11.4987980769231 20.4654017857143  10.9579326923077 21.0792410714286  C 10.4170673076923 21.6930803571429  9.76442307692308 22  9 22  C 8.23557692307692 22  7.58293269230769 21.6930803571429  7.04206730769231 21.0792410714286  C 6.50120192307692 20.4654017857143  6.23076923076923 19.7247023809524  6.23076923076923 18.8571428571429  L 1.38461538461538 18.8571428571429  C 1.00961538461538 18.8571428571429  0.685096153846154 18.7016369047619  0.411057692307692 18.390625  C 0.137019230769231 18.0796130952381  0 17.7113095238095  0 17.2857142857143  C 0.360576923076923 16.9419642857143  0.688701923076923 16.5818452380952  0.984375 16.2053571428571  C 1.28004807692308 15.828869047619  1.58653846153846 15.33984375  1.90384615384615 14.73828125  C 2.22115384615385 14.13671875  2.48978365384615 13.4880952380952  2.70973557692308 12.7924107142857  C 2.9296875 12.0967261904762  3.10997596153846 11.2537202380952  3.25060096153846 10.2633928571429  C 3.39122596153846 9.27306547619048  3.46153846153846 8.20907738095238  3.46153846153846 7.07142857142857  C 3.46153846153846 5.82738095238095  3.88341346153846 4.67131696428571  4.72716346153846 3.60323660714286  C 5.57091346153846 2.53515625  6.67788461538462 1.88653273809524  8.04807692307692 1.65736607142857  C 7.99038461538462 1.50186011904762  7.96153846153846 1.3422619047619  7.96153846153846 1.17857142857143  C 7.96153846153846 0.851190476190476  8.0625 0.572916666666666  8.26442307692308 0.34375  C 8.46634615384616 0.114583333333334  8.71153846153846 0  9 0  C 9.28846153846154 0  9.53365384615385 0.114583333333334  9.73557692307692 0.34375  C 9.9375 0.572916666666666  10.0384615384615 0.851190476190476  10.0384615384615 1.17857142857143  C 10.0384615384615 1.3422619047619  10.0096153846154 1.50186011904762  9.95192307692308 1.65736607142857  C 11.3221153846154 1.88653273809524  12.4290865384615 2.53515625  13.2728365384615 3.60323660714286  C 14.1165865384615 4.67131696428571  14.5384615384615 5.82738095238095  14.5384615384615 7.07142857142857  C 14.5384615384615 8.20907738095238  14.6087740384615 9.27306547619048  14.7493990384615 10.2633928571429  C 14.8900240384615 11.2537202380952  15.0703125 12.0967261904762  15.2902644230769 12.7924107142857  C 15.5102163461538 13.4880952380952  15.7788461538462 14.13671875  16.0961538461538 14.73828125  C 16.4134615384615 15.33984375  16.7199519230769 15.828869047619  17.015625 16.2053571428571  Z " fill-rule="nonzero" fill="#000000" stroke="none" transform="matrix(1 0 0 1 1039 9 )" />
  </g>
</svg>