<?xml version="1.0" encoding="utf-8"?>
<svg version="1.1" xmlns:xlink="http://www.w3.org/1999/xlink" width="18px" height="22px" xmlns="http://www.w3.org/2000/svg">
  <g transform="matrix(1 0 0 1 -974 -9 )">
    <path d="M 11.6172972972973 16.70625  C 11.772972972973 16.84375  11.8508108108108 17.0041666666667  11.8508108108108 17.1875  L 11.8508108108108 21.3125  C 11.8508108108108 21.4958333333333  11.772972972973 21.65625  11.6172972972973 21.79375  C 11.4616216216216 21.93125  11.28 22  11.0724324324324 22  L 6.40216216216216 22  C 6.1945945945946 22  6.01297297297297 21.93125  5.8572972972973 21.79375  C 5.70162162162162 21.65625  5.62378378378378 21.4958333333333  5.62378378378378 21.3125  L 5.62378378378378 17.1875  C 5.62378378378378 17.0041666666667  5.70162162162162 16.84375  5.8572972972973 16.70625  C 6.01297297297297 16.56875  6.1945945945946 16.5  6.40216216216216 16.5  L 11.0724324324324 16.5  C 11.28 16.5  11.4616216216216 16.56875  11.6172972972973 16.70625  Z M 17.2021621621622 4.15078125  C 17.7340540540541 5.01588541666666  18 5.92395833333333  18 6.875  C 18 7.49375  17.8994594594595 8.07239583333333  17.6983783783784 8.6109375  C 17.4972972972973 9.14947916666666  17.2702702702703 9.58776041666667  17.0172972972973 9.92578125  C 16.7643243243243 10.2638020833333  16.4075675675676 10.6046875  15.947027027027 10.9484375  C 15.4864864864865 11.2921875  15.1135135135135 11.54140625  14.8281081081081 11.69609375  C 14.5427027027027 11.85078125  14.147027027027 12.0541666666667  13.6410810810811 12.30625  C 13.1091891891892 12.5697916666667  12.6648648648649 12.9421875  12.3081081081081 13.4234375  C 11.9513513513514 13.9046875  11.772972972973 14.2885416666667  11.772972972973 14.575  C 11.772972972973 14.7697916666667  11.6951351351351 14.9559895833333  11.5394594594595 15.13359375  C 11.3837837837838 15.3111979166667  11.2021621621622 15.4  10.9945945945946 15.4  L 6.32432432432432 15.4  C 6.12972972972973 15.4  5.96432432432433 15.2940104166667  5.82810810810811 15.08203125  C 5.69189189189189 14.8700520833333  5.62378378378378 14.6552083333333  5.62378378378378 14.4375  L 5.62378378378378 13.6640625  C 5.62378378378378 12.7130208333333  6.0454054054054 11.81640625  6.88864864864865 10.97421875  C 7.73189189189189 10.13203125  8.65945945945946 9.51041666666667  9.67135135135135 9.109375  C 10.4367567567568 8.8  10.9816216216216 8.47916666666667  11.3059459459459 8.146875  C 11.6302702702703 7.81458333333333  11.7924324324324 7.37916666666666  11.7924324324324 6.840625  C 11.7924324324324 6.359375  11.4908108108108 5.93541666666667  10.8875675675676 5.56875  C 10.2843243243243 5.20208333333333  9.58702702702703 5.01875  8.79567567567568 5.01875  C 7.95243243243243 5.01875  7.25189189189189 5.18489583333333  6.69405405405405 5.5171875  C 6.24 5.80364583333333  5.54594594594595 6.4625  4.61189189189189 7.49375  C 4.44324324324324 7.67708333333333  4.24216216216216 7.76875  4.00864864864865 7.76875  C 3.85297297297297 7.76875  3.69081081081081 7.72291666666666  3.52216216216216 7.63125  L 0.330810810810811 5.4828125  C 0.162162162162162 5.36822916666666  0.061621621621622 5.225  0.0291891891891892 5.053125  C -0.00324324324324306 4.88125  0.0324324324324325 4.72083333333333  0.136216216216216 4.571875  C 2.21189189189189 1.52395833333333  5.22162162162162 0  9.16540540540541 0  C 10.2032432432432 0  11.2475675675676 0.177604166666666  12.2983783783784 0.532812499999999  C 13.3491891891892 0.888020833333332  14.2962162162162 1.36354166666666  15.1394594594595 1.959375  C 15.9827027027027 2.55520833333333  16.6702702702703 3.28567708333333  17.2021621621622 4.15078125  Z " fill-rule="nonzero" fill="#000000" stroke="none" transform="matrix(1 0 0 1 974 9 )" />
  </g>
</svg>