<?xml version="1.0" encoding="utf-8"?>
<svg version="1.1" xmlns:xlink="http://www.w3.org/1999/xlink" width="26px" height="24px" xmlns="http://www.w3.org/2000/svg">
  <g transform="matrix(1 0 0 1 -1045 -8 )">
    <path d="M 25.82734375 17.3515625  C 25.9424479166667 18.1380208333333  26 18.9739583333333  26 19.859375  C 26 20.9947916666667  25.5768229166667 21.96875  24.73046875 22.78125  C 23.8841145833333 23.59375  22.8651041666667 24  21.6734375 24  L 4.3265625 24  C 3.13489583333333 24  2.11588541666667 23.59375  1.26953125 22.78125  C 0.423177083333333 21.96875  0 20.9947916666667  0 19.859375  C 0 18.9739583333333  0.0575520833333335 18.1380208333333  0.17265625 17.3515625  C 0.287760416666667 16.5651041666667  0.501041666666667 15.7734375  0.8125 14.9765625  C 1.12395833333333 14.1796875  1.52005208333333 13.4973958333333  2.00078125 12.9296875  C 2.48151041666667 12.3619791666667  3.11796875 11.8984375  3.91015625 11.5390625  C 4.70234375 11.1796875  5.61302083333333 11  6.6421875 11  C 8.41614583333334 12.3333333333333  10.5354166666667 13  13 13  C 15.4645833333333 13  17.5838541666667 12.3333333333333  19.3578125 11  C 20.3869791666667 11  21.29765625 11.1796875  22.08984375 11.5390625  C 22.88203125 11.8984375  23.5184895833333 12.3619791666667  23.99921875 12.9296875  C 24.4799479166667 13.4973958333333  24.8760416666667 14.1796875  25.1875 14.9765625  C 25.4989583333333 15.7734375  25.7122395833333 16.5651041666667  25.82734375 17.3515625  Z M 18.51484375 1.7578125  C 20.03828125 2.9296875  20.8 4.34375  20.8 6  C 20.8 7.65625  20.03828125 9.0703125  18.51484375 10.2421875  C 16.99140625 11.4140625  15.153125 12  13 12  C 10.846875 12  9.00859375 11.4140625  7.48515625 10.2421875  C 5.96171875 9.0703125  5.2 7.65625  5.2 6  C 5.2 4.34375  5.96171875 2.9296875  7.48515625 1.7578125  C 9.00859375 0.5859375  10.846875 0  13 0  C 15.153125 0  16.99140625 0.5859375  18.51484375 1.7578125  Z " fill-rule="nonzero" fill="#000000" stroke="none" transform="matrix(1 0 0 1 1045 8 )" />
  </g>
</svg>