<?xml version="1.0" encoding="utf-8"?>
<svg version="1.1" xmlns:xlink="http://www.w3.org/1999/xlink" width="26px" height="24px" xmlns="http://www.w3.org/2000/svg">
  <g transform="matrix(1 0 0 1 -916 -8 )">
    <path d="M 16.7805405405405 18.225  C 17.0054054054054 18.375  17.1178378378378 18.55  17.1178378378378 18.75  L 17.1178378378378 23.25  C 17.1178378378378 23.45  17.0054054054054 23.625  16.7805405405405 23.775  C 16.5556756756757 23.925  16.2933333333333 24  15.9935135135135 24  L 9.24756756756757 24  C 8.94774774774775 24  8.68540540540541 23.925  8.46054054054054 23.775  C 8.23567567567568 23.625  8.12324324324324 23.45  8.12324324324324 23.25  L 8.12324324324324 18.75  C 8.12324324324324 18.55  8.23567567567568 18.375  8.46054054054054 18.225  C 8.68540540540541 18.075  8.94774774774775 18  9.24756756756757 18  L 15.9935135135135 18  C 16.2933333333333 18  16.5556756756757 18.075  16.7805405405405 18.225  Z M 24.8475675675676 4.528125  C 25.6158558558559 5.471875  26 6.4625  26 7.5  C 26 8.175  25.8547747747748 8.80625  25.5643243243243 9.39375  C 25.2738738738739 9.98125  24.9459459459459 10.459375  24.5805405405405 10.828125  C 24.2151351351351 11.196875  23.6998198198198 11.56875  23.0345945945946 11.94375  C 22.3693693693694 12.31875  21.8306306306306 12.590625  21.4183783783784 12.759375  C 21.0061261261261 12.928125  20.4345945945946 13.15  19.7037837837838 13.425  C 18.9354954954955 13.7125  18.2936936936937 14.11875  17.7783783783784 14.64375  C 17.2630630630631 15.16875  17.0054054054054 15.5875  17.0054054054054 15.9  C 17.0054054054054 16.1125  16.892972972973 16.315625  16.6681081081081 16.509375  C 16.4432432432432 16.703125  16.1809009009009 16.8  15.8810810810811 16.8  L 9.13513513513514 16.8  C 8.85405405405406 16.8  8.61513513513514 16.684375  8.41837837837838 16.453125  C 8.22162162162162 16.221875  8.12324324324324 15.9875  8.12324324324324 15.75  L 8.12324324324324 14.90625  C 8.12324324324324 13.86875  8.73225225225225 12.890625  9.95027027027027 11.971875  C 11.1682882882883 11.053125  12.5081081081081 10.375  13.9697297297297 9.9375  C 15.0753153153153 9.6  15.8623423423423 9.25  16.3308108108108 8.8875  C 16.7992792792793 8.525  17.0335135135135 8.05  17.0335135135135 7.4625  C 17.0335135135135 6.9375  16.5978378378378 6.475  15.7264864864865 6.075  C 14.8551351351351 5.675  13.8479279279279 5.475  12.7048648648649 5.475  C 11.4868468468468 5.475  10.474954954955 5.65625  9.66918918918919 6.01875  C 9.01333333333333 6.33125  8.01081081081081 7.05  6.66162162162162 8.175  C 6.41801801801802 8.375  6.12756756756757 8.475  5.79027027027027 8.475  C 5.56540540540541 8.475  5.33117117117117 8.425  5.08756756756757 8.325  L 0.477837837837838 5.98125  C 0.234234234234235 5.85625  0.0890090090090095 5.7  0.0421621621621622 5.5125  C -0.00468468468468442 5.325  0.046846846846847 5.15  0.196756756756757 4.9875  C 3.19495495495496 1.6625  7.54234234234234 0  13.2389189189189 0  C 14.738018018018 0  16.2464864864865 0.19375  17.7643243243243 0.581249999999999  C 19.2821621621622 0.968749999999998  20.6500900900901 1.4875  21.8681081081081 2.1375  C 23.0861261261261 2.7875  24.0792792792793 3.584375  24.8475675675676 4.528125  Z " fill-rule="nonzero" fill="#000000" stroke="none" transform="matrix(1 0 0 1 916 8 )" />
  </g>
</svg>